<svg xmlns="http://www.w3.org/2000/svg" xmlns:xlink="http://www.w3.org/1999/xlink" id="Layer_1" width="32" height="32" x="0" style="enable-background:new 0 0 32 32" y="0" version="1.1" viewBox="0 0 32 32" xml:space="preserve"><path style="fill-rule:evenodd;clip-rule:evenodd;fill:#121111" d="M21.55,13.6c-1.825-2.25-3.859-4.345-5.519-6.708	c-1.367-1.945-2.729-2.399-4.965-1.549C9.75,5.842,9.296,6.363,9.45,7.684c0.36,3.08,0.214,6.178,0.29,9.269	c0.023,0.964,0.296,1.773,0.714,2.641c1.061,2.199,2.689,3.627,4.985,4.412c1.15,0.394,2.241,0.97,3.334,1.513	c0.637,0.317,1.105,0.255,1.725-0.148c2.824-1.835,4.518-4.746,6.994-7.066c-0.523-0.377-0.973-0.67-1.384-1.009	C24.601,16.05,22.815,15.161,21.55,13.6z"/></svg>